PathFileType	4	(X/Y/Z)	Kaydara																																																																																																																									
DataRate	CameraRate	NumFrames	NumMarkers	Units	OrigDataRate	OrigDataStartFrame	OrigNumFrames																																																																																																																					
30	30	4	41	mm	30	166	300																																																																																																																					
Frame#	Time	PAIB_LFHD			PAIB_RFHD			PAIB_LBHD			PAIB_RBHD			PAIB_LFTShould			PAIB_RFTShould			PAIB_LRRShould			PAIB_RRRShould			PAIB_T10			PAIB_STRN			PAIB_TRUN			PAIB_LSHO			PAIB_LUPA			PAIB_LELB			PAIB_LFRM			PAIB_LWRA			PAIB_LWRB			PAIB_LFIN			PAIB_RSHO			PAIB_RUPA			PAIB_RELB			PAIB_RFRM			PAIB_RWRA			PAIB_RWRB			PAIB_RFIN			PAIB_LFWT			PAIB_RFWT			PAIB_LBWT			PAIB_RBWT			PAIB_LTHI			PAIB_LKNE			PAIB_LSHN			PAIB_LANK			PAIB_LHEE			PAIB_LTOE			PAIB_RTHI			PAIB_RKNE			PAIB_RSHN			PAIB_RANK			PAIB_RHEE			PAIB_RTOE		
		X1	Y1	Z1	X2	Y2	Z2	X3	Y3	Z3	X4	Y4	Z4	X5	Y5	Z5	X6	Y6	Z6	X7	Y7	Z7	X8	Y8	Z8	X9	Y9	Z9	X10	Y10	Z10	X11	Y11	Z11	X12	Y12	Z12	X13	Y13	Z13	X14	Y14	Z14	X15	Y15	Z15	X16	Y16	Z16	X17	Y17	Z17	X18	Y18	Z18	X19	Y19	Z19	X20	Y20	Z20	X21	Y21	Z21	X22	Y22	Z22	X23	Y23	Z23	X24	Y24	Z24	X25	Y25	Z25	X26	Y26	Z26	X27	Y27	Z27	X28	Y28	Z28	X29	Y29	Z29	X30	Y30	Z30	X31	Y31	Z31	X32	Y32	Z32	X33	Y33	Z33	X34	Y34	Z34	X35	Y35	Z35	X36	Y36	Z36	X37	Y37	Z37	X38	Y38	Z38	X39	Y39	Z39	X40	Y40	Z40	X41	Y41	Z41
																																																																																																																												
151	5.5	309.09409	1584.58389	-177.55596	125.68185	1601.91071	-188.49899	327.79507	1617.70828	-301.40614	125.55494	1641.71753	-297.09742	269.58288	1369.43192	-295.23014	149.40433	1372.13623	-301.85516	290.8353	1466.78421	-415.41527	136.179	1471.58493	-413.39256	210.23064	1333.91617	-531.73595	211.97281	1299.24866	-278.02532	205.06519	1195.42053	-279.53741	402.71538	1393.26874	-352.42851	441.1824	1164.20898	-377.67048	459.15878	1083.06618	-425.78316	472.15233	965.15945	-396.85684	404.77417	840.9906	-330.4472	451.13091	832.22084	-396.8198	455.177	786.66206	-339.24709	23.72486	1395.87662	-350.37029	-44.51232	1233.5038	-419.40815	-68.24355	1118.76587	-447.77172	-85.50877	979.51492	-429.71123	-24.4271	867.11884	-340.55946	-92.44948	857.34741	-390.84583	-83.77291	816.21078	-329.27692	295.24008	949.86664	-326.32542	59.53415	942.81784	-345.38059	257.04441	1001.90826	-545.43694	113.3006	1006.92879	-553.8739	298.62696	708.96523	-503.32924	314.45515	478.95012	-350.0552	279.07238	299.29111	-306.33417	269.97793	100.5863	-354.35295	211.28214	89.11866	-399.25037	256.68268	57.05964	-174.90236	62.42281	715.06783	-581.61213	41.72751	467.66617	-539.12537	103.44297	288.79093	-592.62367	92.04874	142.69381	-758.41988	161.41865	169.03362	-791.43875	87.52601	58.30054	-615.63831
152	5.533	315.90574	1584.37836	-155.98423	132.67385	1603.25714	-167.8223	335.42679	1617.82745	-279.47887	133.45261	1643.47519	-276.28012	275.19377	1370.047	-274.1114	155.0235	1373.43857	-282.34615	298.29933	1467.35413	-394.00978	143.55295	1472.94693	-394.34937	218.59737	1334.98413	-511.44661	216.87941	1300.17197	-257.8326	209.41019	1196.40839	-259.548	409.22546	1393.4111	-330.27126	449.64008	1164.66522	-354.95834	468.34614	1083.56926	-402.63889	481.71295	965.80101	-373.16475	414.88869	842.05116	-305.62382	461.00101	832.80617	-372.14455	465.74509	787.94441	-314.24057	30.44455	1397.44202	-332.77164	-39.9999	1236.6008	-402.26971	-65.55123	1122.20375	-430.87936	-82.63927	982.91397	-412.90104	-19.06222	870.15762	-326.28151	-88.82227	860.62317	-374.3198	-77.57819	818.90862	-313.3746	299.36485	950.49904	-306.01122	63.98399	944.53163	-328.08666	262.82759	1003.80203	-525.88837	119.18778	1007.82722	-536.14891	303.2332	712.18216	-488.64868	318.94169	478.53363	-345.41679	282.22193	298.48574	-303.66344	270.66212	100.992	-354.06456	211.41901	89.94352	-398.93425	257.04182	56.68733	-174.72837	66.38911	712.82784	-559.65755	38.12466	467.77935	-516.52805	99.96421	291.30009	-574.22932	93.16209	154.50415	-748.0555	163.66821	182.64103	-776.78505	87.62917	58.56181	-613.70296
153	5.567	322.12139	1583.76556	-135.08114	139.14089	1603.85559	-148.09965	342.57465	1617.4408	-258.05882	140.85671	1644.42596	-256.35199	280.35364	1370.2179	-253.9933	160.37022	1374.4249	-263.71046	305.47388	1467.55295	-373.56094	150.84479	1474.29047	-376.07155	226.55094	1336.18881	-492.57141	221.325	1300.73807	-238.60458	213.11357	1197.04361	-240.72044	415.15812	1393.04169	-309.09369	457.62196	1164.74609	-331.9125	477.34715	1083.37502	-378.4898	490.85499	965.92453	-347.40891	423.85841	843.39737	-278.07131	470.19573	832.91252	-344.39095	474.88403	789.35844	-285.61859	36.82051	1398.84659	-316.23196	-34.59714	1239.05624	-386.43654	-61.2855	1124.74693	-414.76086	-78.5412	985.68794	-395.564	-13.89419	873.14293	-309.86727	-84.81192	863.70323	-356.30661	-72.08902	822.27455	-295.26283	303.34036	951.60835	-287.18706	68.1839	946.27296	-311.5369	267.95319	1005.78751	-507.50538	124.63532	1008.17169	-519.41853	309.05102	715.60669	-475.60059	321.56616	478.74126	-338.75912	285.24607	297.98817	-301.41413	271.31874	101.24922	-354.21848	212.06724	90.86697	-399.19384	257.56994	56.70815	-175.11227	68.55538	709.29199	-536.89503	33.94276	468.10055	-490.8659	96.63264	293.91146	-552.76321	93.69534	166.3773	-733.74802	165.08974	196.27174	-758.11447	88.17513	58.58936	-610.73177
154	5.6	327.81609	1582.25204	-115.36643	145.03929	1603.58597	-129.30771	349.32915	1616.63895	-237.9533	147.74324	1644.79782	-237.26694	284.96571	1370.23254	-235.39135	165.1985	1375.37445	-246.24119	312.08073	1467.61658	-354.3272	157.6111	1475.69321	-358.59959	233.53561	1337.28546	-474.7897	225.44712	1301.08353	-220.84396	216.59458	1197.49184	-223.1938	420.4023	1392.66541	-288.63195	464.27402	1164.75914	-308.31741	485.39295	1082.98203	-353.40565	498.86173	966.12961	-319.71233	431.3448	844.96109	-248.58845	478.58189	833.05771	-313.96692	482.70332	791.14906	-254.05029	42.50145	1400.91309	-300.06084	-28.4487	1241.343	-371.40259	-55.29747	1127.2683	-400.15636	-73.03819	988.2048	-379.57344	-9.66232	876.75499	-291.25931	-80.03878	866.93596	-338.49297	-68.32609	826.45905	-276.53423	307.45159	952.25494	-269.51702	72.50539	947.67937	-295.65119	273.1426	1007.36984	-489.9646	130.07077	1008.35754	-503.20438	313.59283	718.58879	-462.87251	325.26814	478.27778	-333.43449	287.89459	297.49603	-298.77377	271.68463	101.73765	-354.46754	212.41402	91.69348	-399.4128	257.81403	56.64722	-175.34628	70.77717	705.62164	-513.81214	30.20608	466.86848	-459.29375	93.11282	296.50955	-528.77369	93.79675	177.6474	-715.87807	165.90557	208.68099	-735.55359	87.89404	59.57665	-604.12628
